<svg xmlns="http://www.w3.org/2000/svg" viewBox="0 0 32 32" role="img" aria-hidden="true">
  <defs>
    <linearGradient id="quickcrm-icon-grad" x1="0" y1="0" x2="32" y2="32" gradientUnits="userSpaceOnUse">
      <stop stop-color="#7c3aed"/>
      <stop offset="1" stop-color="#d946ef"/>
    </linearGradient>
  </defs>
  <rect width="32" height="32" rx="8" fill="url(#quickcrm-icon-grad)"/>
  <g transform="translate(6.34,21.34) scale(0.2839)" fill="#ffffff">
    <path d="M61.92 6.91Q62.64 6.91 63.04 7.67Q63.43 8.42 63.43 9.65L63.43 9.65Q63.43 11.95 62.21 14.18L62.21 14.18Q59.76 18.65 55.76 21.06Q51.77 23.47 47.59 23.47L47.59 23.47Q43.34 23.47 40.46 22.14Q37.58 20.81 35.57 18.18Q33.55 15.55 31.68 11.23L31.68 11.23Q29.74 6.77 28.48 4.57Q27.22 2.38 25.85 1.37Q24.48 0.36 22.32-0.07L22.32-0.07Q14.33-1.66 9.47-7.99Q4.61-14.33 4.61-24.34L4.61-24.34Q4.61-35.28 8.60-43.63Q12.60-51.98 19.48-56.52Q26.35-61.06 34.70-61.06L34.70-61.06Q41.11-61.06 46.26-58.18Q51.41-55.30 54.43-49.72Q57.46-44.14 57.46-36.36L57.46-36.36Q57.46-27.29 54.72-20.02Q51.98-12.74 47.16-7.92Q42.34-3.10 36.07-1.08L36.07-1.08Q37.87-0.07 39.20 1.87Q40.54 3.82 42.05 7.49L42.05 7.49Q43.70 11.52 45.61 13.25Q47.52 14.98 50.33 14.98L50.33 14.98Q52.70 14.98 54.94 13.36Q57.17 11.74 59.98 8.06L59.98 8.06Q60.84 6.91 61.92 6.91L61.92 6.91ZM28.08-8.14Q33.70-8.14 37.98-11.59Q42.26-15.05 44.57-21.20Q46.87-27.36 46.87-35.14L46.87-35.14Q46.87-43.70 43.27-48.13Q39.67-52.56 33.98-52.56L33.98-52.56Q28.51-52.56 24.23-49.07Q19.94-45.58 17.57-39.46Q15.19-33.34 15.19-25.56L15.19-25.56Q15.19-16.99 18.79-12.56Q22.39-8.14 28.08-8.14L28.08-8.14Z"/>
  </g>
</svg>
